<svg width="316" height="71" viewBox="0 0 316 71" fill="none" xmlns="http://www.w3.org/2000/svg">
<path d="M35.6 36.592H26.48L21.392 65.488H32.528C35.6 65.488 38.192 65.072 40.304 64.24C42.48 63.344 44.208 62.16 45.488 60.688C46.768 59.152 47.664 57.392 48.176 55.408C48.752 53.424 49.04 51.312 49.04 49.072C49.04 46.64 48.592 44.496 47.696 42.64C46.8 40.72 45.36 39.248 43.376 38.224C41.456 37.136 38.864 36.592 35.6 36.592ZM38.576 6.352H31.76L27.248 32.176H35.6C38.48 32.176 40.88 31.76 42.8 30.928C44.72 30.096 46.256 28.976 47.408 27.568C48.56 26.096 49.36 24.464 49.808 22.672C50.32 20.88 50.576 19.024 50.576 17.104C50.576 14.864 50.128 12.976 49.232 11.44C48.4 9.84 47.12 8.592 45.392 7.696C43.664 6.8 41.392 6.352 38.576 6.352ZM40.4 34.48L44.624 33.04L44.336 34.864L38.48 33.04C43.6 33.488 47.856 34.48 51.248 36.016C54.64 37.552 57.168 39.536 58.832 41.968C60.56 44.336 61.424 47.056 61.424 50.128C61.424 53.2 60.848 55.952 59.696 58.384C58.608 60.816 56.912 62.896 54.608 64.624C52.304 66.352 49.36 67.696 45.776 68.656C42.192 69.552 37.968 70 33.104 70H0.464L1.232 66.064H2C3.856 66.064 5.52 65.872 6.992 65.488C8.528 65.04 9.424 64.176 9.68 62.896L19.184 9.232C19.44 7.824 18.928 6.896 17.648 6.44799C16.368 6 14.704 5.776 12.656 5.776H11.888L12.56 1.84H39.44C44.688 1.84 49.008 2.544 52.4 3.952C55.856 5.36 58.416 7.28 60.08 9.712C61.808 12.144 62.672 14.864 62.672 17.872C62.672 20.88 61.872 23.664 60.272 26.224C58.736 28.72 56.336 30.704 53.072 32.176C49.808 33.648 45.584 34.416 40.4 34.48ZM88.3498 70.96C83.8058 70.96 79.6458 70.192 75.8697 68.656C72.0937 67.12 68.8297 64.944 66.0777 62.128C63.3257 59.312 61.1817 55.984 59.6457 52.144C58.1097 48.24 57.3417 43.984 57.3417 39.376C57.3417 35.088 57.9177 31.024 59.0697 27.184C60.2857 23.28 62.0137 19.728 64.2537 16.528C66.4937 13.328 69.1497 10.576 72.2217 8.272C75.2937 5.904 78.7177 4.08 82.4937 2.8C86.3337 1.52 90.4298 0.879997 94.7818 0.879997C99.2618 0.879997 103.39 1.648 107.166 3.184C110.942 4.72 114.206 6.896 116.958 9.712C119.71 12.528 121.854 15.888 123.39 19.792C124.926 23.632 125.694 27.856 125.694 32.464C125.694 36.752 125.086 40.848 123.87 44.752C122.718 48.592 121.022 52.112 118.782 55.312C116.542 58.512 113.886 61.296 110.814 63.664C107.742 65.968 104.286 67.76 100.446 69.04C96.6698 70.32 92.6378 70.96 88.3498 70.96ZM94.5898 5.68C91.7738 5.68 89.1818 6.224 86.8138 7.31199C84.4458 8.4 82.3018 9.968 80.3818 12.016C78.5258 14.064 76.8937 16.496 75.4857 19.312C74.1417 22.128 73.0537 25.232 72.2217 28.624C71.7097 30.16 71.2937 31.728 70.9737 33.328C70.6537 34.928 70.3977 36.56 70.2057 38.224C70.0777 39.824 70.0137 41.424 70.0137 43.024C70.0137 46.672 70.4297 49.936 71.2617 52.816C72.1577 55.632 73.3737 58.032 74.9097 60.016C76.5097 62 78.4297 63.536 80.6698 64.624C82.9737 65.648 85.5337 66.16 88.3498 66.16C91.2298 66.16 93.8538 65.616 96.2218 64.528C98.5898 63.44 100.702 61.872 102.558 59.824C104.478 57.776 106.11 55.344 107.454 52.528C108.862 49.712 109.982 46.608 110.814 43.216C111.326 41.616 111.71 40.048 111.966 38.512C112.286 36.912 112.51 35.312 112.638 33.712C112.83 32.048 112.926 30.384 112.926 28.72C112.926 25.136 112.51 21.936 111.678 19.12C110.846 16.304 109.63 13.904 108.03 11.92C106.43 9.872 104.51 8.336 102.27 7.31199C100.03 6.224 97.4698 5.68 94.5898 5.68ZM148.284 38.992L159.517 37.264L169.02 63.088C169.34 63.92 169.756 64.56 170.268 65.008C170.781 65.456 171.42 65.744 172.188 65.872C172.956 66 173.852 66.064 174.876 66.064H175.357L174.684 70H158.364L148.284 38.992ZM141.18 66.064L140.412 70H112.476L113.244 66.064H114.012C115.868 66.064 117.532 65.872 119.004 65.488C120.54 65.104 121.436 64.304 121.692 63.088L131.196 9.232C131.388 7.824 130.844 6.896 129.564 6.44799C128.348 6 126.716 5.776 124.668 5.776H123.804L124.572 1.84H151.068C156.38 1.84 160.86 2.608 164.508 4.144C168.221 5.616 171.037 7.728 172.956 10.48C174.941 13.168 175.933 16.304 175.933 19.888C175.933 22.576 175.453 25.04 174.493 27.28C173.597 29.456 172.253 31.408 170.46 33.136C168.733 34.864 166.589 36.304 164.028 37.456C161.532 38.608 158.716 39.408 155.58 39.856C154.812 39.984 154.012 40.112 153.18 40.24C152.412 40.304 151.58 40.368 150.684 40.432C149.852 40.496 148.988 40.528 148.092 40.528H137.724L133.404 65.104C133.404 65.296 133.724 65.488 134.364 65.68C135.068 65.808 135.932 65.904 136.956 65.968C138.044 66.032 139.1 66.064 140.124 66.064H141.18ZM150.492 6.44799H143.772L138.588 36.016H146.94C149.948 36.016 152.476 35.6 154.524 34.768C156.636 33.872 158.332 32.624 159.612 31.024C160.956 29.424 161.916 27.6 162.492 25.552C163.132 23.44 163.453 21.2 163.453 18.832C163.453 16.208 162.972 13.968 162.012 12.112C161.116 10.256 159.708 8.848 157.788 7.888C155.932 6.928 153.5 6.44799 150.492 6.44799ZM221.074 49.552L217.426 70H165.202L165.97 66.064H166.738C168.594 66.064 170.258 65.872 171.73 65.488C173.266 65.04 174.162 64.112 174.418 62.704L183.826 9.328C184.082 7.856 183.57 6.896 182.29 6.44799C181.01 6 179.346 5.776 177.298 5.776H176.53L177.298 1.84H226.258L223.378 19.888H218.866L218.77 11.248C218.77 9.968 218.418 9.008 217.714 8.368C217.01 7.664 215.858 7.184 214.258 6.928C212.722 6.608 210.706 6.44799 208.21 6.44799H196.498L186.13 65.392H200.146C202.834 65.392 205.01 65.264 206.674 65.008C208.402 64.688 209.746 64.176 210.706 63.472C211.666 62.768 212.338 61.776 212.722 60.496L216.466 49.552H221.074ZM189.97 32.944C193.106 32.88 195.954 32.816 198.514 32.752C201.138 32.624 203.57 32.464 205.81 32.272C208.05 32.016 210.29 31.728 212.53 31.408L211.282 38.992C209.17 38.544 206.994 38.224 204.754 38.032C202.578 37.84 200.21 37.68 197.65 37.552C195.154 37.424 192.338 37.328 189.202 37.264L189.97 32.944ZM229.115 42.16H254.363L253.883 46.576H227.387L229.115 42.16ZM246.587 7.792L248.123 8.56L220.955 64.24C220.955 64.56 221.147 64.88 221.531 65.2C221.979 65.456 222.651 65.68 223.547 65.872C224.507 66 225.659 66.064 227.003 66.064H229.019L228.251 70H208.379L209.051 66.064H209.627C211.099 66.064 212.443 65.744 213.659 65.104C214.875 64.4 215.931 63.184 216.827 61.456L246.203 1.84H257.339L266.555 63.088C266.747 64.368 267.291 65.2 268.187 65.584C269.147 65.904 270.299 66.064 271.643 66.064H272.123L271.355 70H245.531L246.203 66.064H247.739C248.827 66.064 249.883 66.032 250.907 65.968C251.931 65.904 252.795 65.808 253.499 65.68C254.267 65.488 254.683 65.296 254.747 65.104L246.587 7.792ZM301.503 1.84L300.831 5.776H299.775C298.559 5.776 297.375 5.84 296.223 5.96799C295.135 6.032 294.207 6.224 293.439 6.544C292.735 6.8 292.319 7.216 292.191 7.792L282.111 65.392H294.591C296.575 65.392 298.303 65.328 299.775 65.2C301.247 65.008 302.463 64.752 303.423 64.432C304.383 64.048 305.151 63.536 305.727 62.896C306.367 62.256 306.847 61.456 307.167 60.496L310.911 48.304H315.711L311.967 70H261.183L261.951 66.064H262.719C264.575 66.064 266.239 65.872 267.711 65.488C269.247 65.104 270.143 64.272 270.399 62.992L279.903 8.944C280.095 7.728 279.519 6.896 278.175 6.44799C276.831 6 275.231 5.776 273.375 5.776H272.511L273.279 1.84H301.503Z" fill="black"/>
</svg>
